# xmcd CD database file
#
# Track frame offsets:
#	150
#	35818
#	69572
#	106766
#	144041
#	181074
#
# Disc length: 2872 seconds
#
# Revision: 0
# Processed by: cddbd v1.5.2PL0 Copyright (c) Steve Scherf et al.
# Submitted via: jetAudio 7
#
DISCID=470b3606
DTITLE=鬱紅  - 古箏于心靈的對話-好風如水
DYEAR=1900
DGENRE=Folk
TTITLE0=好風如水
TTITLE1=歇香
TTITLE2=落花深
TTITLE3=弄影
TTITLE4=野雲
TTITLE5=舞清閒
EXTD=
EXTT0=
EXTT1=
EXTT2=
EXTT3=
EXTT4=
EXTT5=
PLAYORDER=
